<svg class="svg-icon" style="width: 1em; height: 1em;vertical-align: middle;fill: currentColor;overflow: hidden;"
     viewBox="0 0 1024 1024" version="1.1" xmlns="http://www.w3.org/2000/svg">
  <path
    d="M425.936 992a129.296 129.296 0 1 1 129.296-129.296A129.44 129.44 0 0 1 425.936 992z m0-185.44a55.408 55.408 0 1 0 55.408 55.408 55.344 55.344 0 0 0-55.408-55.424z"/>
  <path
    d="M788.688 992a129.296 129.296 0 1 1 129.296-129.296A129.44 129.44 0 0 1 788.688 992z m0-185.44a55.408 55.408 0 1 0 55.408 55.408 55.344 55.344 0 0 0-55.408-55.424z"/>
  <path
    d="M923.856 669.136h-634.88a37.408 37.408 0 0 1-36.208-27.328L118.992 102.096H36.96A35.088 35.088 0 1 1 36.96 32h110.864A37.408 37.408 0 0 1 184 59.328l133.776 539.712h573.52l51.728-325.92h-505.6a35.088 35.088 0 1 1 0-70.096H986.56a37.92 37.92 0 0 1 28.08 11.92 33.392 33.392 0 0 1 8.864 28.032l-62.816 396.016a36.8 36.8 0 0 1-36.832 30.144z"/>
</svg>
